<svg xmlns="http://www.w3.org/2000/svg" fill="none" viewBox="0 0 283 64"><path fill="black" d="m141.04 16 c 11.04 0 19 7.2 19 18 s -8.96 18 -20 18 c -4.38 0 -8.38 -1.79 -11.19 -4.71 l -3.15 3.15 c 3.33 3.33 7.86 5.4 12.8 5.4 c 14.21 0 24.54 -9.27 24.54 -22 s -10.33 -22 -24.54 -22 c -4.94 0 -9.47 2.07 -12.8 5.4 l 3.15 3.15 c 2.81 -2.92 6.81 -4.71 11.19 -4.71 Z M 248.08 16 c 11.04 0 19 7.2 19 18 s -8.96 18 -20 18 c -4.38 0 -8.38 -1.79 -11.19 -4.71 l -3.15 3.15 c 3.33 3.33 7.86 5.4 12.8 5.4 c 14.21 0 24.54 -9.27 24.54 -22 s -10.33 -22 -24.54 -22 c -4.94 0 -9.47 2.07 -12.8 5.4 l 3.15 3.15 c 2.81 -2.92 6.81 -4.71 11.19 -4.71 Z M 200.24 34 c 0 6 3.92 11 10 11 4.12 0 7.21 -1.87 8.8 -4.92 l 3.68 2.1 c -2.2 3.93 -6.9 6.82 -12.48 6.82 -11.05 0 -19 -7.2 -19 -18 s 7.96 -18 19 -18 c 4.48 0 8.38 1.79 11.19 4.71 l 3.15 -3.15 c -3.33 -3.33 -7.86 -5.4 -12.8 -5.4 -14.21 0 -24.54 9.27 -24.54 22 Z M 141.64 0 c -11.04 0 -19 7.2 -19 18 s 8.96 18 20 18 c 4.38 0 8.38 -1.79 11.19 -4.71 l 3.15 3.15 c -3.33 3.33 -7.86 5.4 -12.8 5.4 -14.21 0 -24.54 -9.27 -24.54 -22 s 10.33 -22 24.54 -22 c 4.94 0 9.47 -2.07 12.8 -5.4 l -3.15 -3.15 c -2.81 2.92 -6.81 4.71 -11.19 4.71 Z"/></svg>
